<?xml version="1.0" encoding="utf-8"?>
<!-- Generator: Adobe Illustrator 24.0.0, SVG Export Plug-In . SVG Version: 6.00 Build 0)  -->
<svg version="1.1" id="Layer_1" xmlns="http://www.w3.org/2000/svg" xmlns:xlink="http://www.w3.org/1999/xlink" x="0px" y="0px"
	 viewBox="0 0 16 16" style="enable-background:new 0 0 16 16;" xml:space="preserve">
<style type="text/css">
	.st0{fill:#FFFFFF;}
</style>
<path d="M8,16L8,16c-4.4,0-8-3.6-8-8v0c0-4.4,3.6-8,8-8h0c4.4,0,8,3.6,8,8v0C16,12.4,12.4,16,8,16z"/>
<g>
	<path class="st0" d="M1.6,6.1h1.6c1.1,0,1.7,0.6,1.7,1.5c0,0.5-0.2,0.9-0.7,1.2L5,9.9H4.1L3.5,9C3.4,9,3.3,9,3.2,9H2.4v0.9H1.6V6.1
		z M3.3,8.3c0.5,0,0.8-0.3,0.8-0.8c0-0.4-0.3-0.8-0.8-0.8H2.4v1.5H3.3z"/>
	<path class="st0" d="M5.1,6.1h0.8l0.6,2.2c0.1,0.2,0.1,0.5,0.1,0.6c0,0,0.1-0.3,0.1-0.6l0.6-2.2h0.8l0.6,2.2
		c0.1,0.2,0.1,0.5,0.1,0.6c0,0,0.1-0.3,0.1-0.6l0.6-2.2h0.8L9.3,9.9H8.5L7.9,7.7C7.8,7.5,7.8,7.1,7.8,7.1c0,0-0.1,0.4-0.1,0.7
		L7.1,9.9H6.2L5.1,6.1z"/>
	<path class="st0" d="M10.9,6.1h1.5c1.2,0,2,0.9,2,1.9s-0.8,1.9-2,1.9h-1.5V6.1z M12.3,9.2c0.7,0,1.2-0.5,1.2-1.2
		c0-0.7-0.5-1.2-1.2-1.2h-0.7v2.4H12.3z"/>
</g>
<text transform="matrix(0.6 0 0 1 -28.6821 44.8115)" class="st0" style="font-family:'Arboria-Bold'; font-size:29.3896px;">RWD</text>
</svg>
